TITLE ""
FILE "Step1_Track34.mp3" MP3
  TRACK 01 AUDIO
    TITLE "Step1_Track34_01"
    INDEX 01 00:00:00
  TRACK 02 AUDIO
    TITLE "Step1_Track34_02"
    INDEX 01 00:00:24
  TRACK 03 AUDIO
    TITLE "Step1_Track34_03"
    INDEX 01 00:02:07
  TRACK 04 AUDIO
    TITLE "Step1_Track34_04"
    INDEX 01 00:02:64
  TRACK 05 AUDIO
    TITLE "Step1_Track34_05"
    INDEX 01 00:03:63
  TRACK 06 AUDIO
    TITLE "Step1_Track34_06"
    INDEX 01 00:03:73
  TRACK 07 AUDIO
    TITLE "Step1_Track34_07"
    INDEX 01 00:06:38
  TRACK 08 AUDIO
    TITLE "Step1_Track34_08"
    INDEX 01 00:06:72
  TRACK 09 AUDIO
    TITLE "Step1_Track34_09"
    INDEX 01 00:07:67
  TRACK 10 AUDIO
    TITLE "Step1_Track34_10"
    INDEX 01 00:07:73
  TRACK 11 AUDIO
    TITLE "Step1_Track34_11"
    INDEX 01 00:10:62
  TRACK 12 AUDIO
    TITLE "Step1_Track34_12"
    INDEX 01 00:11:04
  TRACK 13 AUDIO
    TITLE "Step1_Track34_13"
    INDEX 01 00:11:75
  TRACK 14 AUDIO
    TITLE "Step1_Track34_14"
    INDEX 01 00:12:19
  TRACK 15 AUDIO
    TITLE "Step1_Track34_15"
    INDEX 01 00:15:02
  TRACK 16 AUDIO
    TITLE "Step1_Track34_16"
    INDEX 01 00:15:24
  TRACK 17 AUDIO
    TITLE "Step1_Track34_17"
    INDEX 01 00:16:21
  TRACK 18 AUDIO
    TITLE "Step1_Track34_18"
    INDEX 01 00:16:39
  TRACK 19 AUDIO
    TITLE "Step1_Track34_19"
    INDEX 01 00:19:06
  TRACK 20 AUDIO
    TITLE "Step1_Track34_20"
    INDEX 01 00:19:33
  TRACK 21 AUDIO
    TITLE "Step1_Track34_21"
    INDEX 01 00:20:27
  TRACK 22 AUDIO
    TITLE "Step1_Track34_22"
    INDEX 01 00:20:48
  TRACK 23 AUDIO
    TITLE "Step1_Track34_23"
    INDEX 01 00:24:26
  TRACK 24 AUDIO
    TITLE "Step1_Track34_24"
    INDEX 01 00:24:40
  TRACK 25 AUDIO
    TITLE "Step1_Track34_25"
    INDEX 01 00:25:40
  TRACK 26 AUDIO
    TITLE "Step1_Track34_26"
    INDEX 01 00:25:53
  TRACK 27 AUDIO
    TITLE "Step1_Track34_27"
    INDEX 01 00:29:34
  TRACK 28 AUDIO
    TITLE "Step1_Track34_28"
    INDEX 01 00:29:53
  TRACK 29 AUDIO
    TITLE "Step1_Track34_29"
    INDEX 01 00:30:58
  TRACK 30 AUDIO
    TITLE "Step1_Track34_30"
    INDEX 01 00:30:70
  TRACK 31 AUDIO
    TITLE "Step1_Track34_31"
    INDEX 01 00:34:21
  TRACK 32 AUDIO
    TITLE "Step1_Track34_32"
    INDEX 01 00:34:31
  TRACK 33 AUDIO
    TITLE "Step1_Track34_33"
    INDEX 01 00:35:22
  TRACK 34 AUDIO
    TITLE "Step1_Track34_34"
    INDEX 01 00:35:40
  TRACK 35 AUDIO
    TITLE "Step1_Track34_35"
    INDEX 01 00:38:34
  TRACK 36 AUDIO
    TITLE "Step1_Track34_36"
    INDEX 01 00:38:50
  TRACK 37 AUDIO
    TITLE "Step1_Track34_37"
    INDEX 01 00:39:55
  TRACK 38 AUDIO
    TITLE "Step1_Track34_38"
    INDEX 01 00:39:63
  TRACK 39 AUDIO
    TITLE "Step1_Track34_39"
    INDEX 01 00:42:73
  TRACK 40 AUDIO
    TITLE "Step1_Track34_40"
    INDEX 01 00:43:14
  TRACK 41 AUDIO
    TITLE "Step1_Track34_41"
    INDEX 01 00:44:10
  TRACK 42 AUDIO
    TITLE "Step1_Track34_42"
    INDEX 01 00:44:19
  TRACK 43 AUDIO
    TITLE "Step1_Track34_43"
    INDEX 01 00:46:67
